<?xml version="1.0" encoding="UTF-8"?>
<svg xmlns="http://www.w3.org/2000/svg" xmlns:xlink="http://www.w3.org/1999/xlink" width="170px" height="19px" viewBox="0 0 170 19" version="1.1">
<g id="surface1">
<path style=" stroke:none;fill-rule:nonzero;fill:rgb(0%,0%,0%);fill-opacity:1;" d="M 101.035156 0.0546875 C 100.351562 0.0585938 99.058594 0.0820312 98.554688 0.0976562 C 95.996094 0.175781 94.722656 0.382812 93.496094 0.90625 C 92.410156 1.375 91.679688 2 91.179688 2.898438 C 90.722656 3.714844 90.425781 4.898438 90.339844 6.214844 C 90.257812 7.472656 90.257812 10.953125 90.339844 12.453125 C 90.425781 14.011719 90.601562 14.925781 90.984375 15.777344 C 91.082031 15.988281 91.28125 16.363281 91.390625 16.535156 C 92.007812 17.511719 92.9375 18.128906 94.34375 18.484375 C 95.222656 18.710938 96.140625 18.816406 97.726562 18.875 C 99.226562 18.929688 101.980469 18.957031 104.410156 18.9375 C 107.417969 18.910156 108.613281 18.867188 109.691406 18.746094 C 111.292969 18.570312 112.433594 18.191406 113.257812 17.558594 C 113.59375 17.304688 113.96875 16.945312 114.183594 16.675781 C 114.710938 16.015625 115.035156 15.230469 115.246094 14.117188 C 115.382812 13.40625 115.460938 12.574219 115.507812 11.335938 C 115.539062 10.519531 115.523438 7.832031 115.480469 6.785156 C 115.421875 5.351562 115.296875 4.523438 115.019531 3.691406 C 114.757812 2.902344 114.421875 2.335938 113.90625 1.816406 C 113.527344 1.4375 113.171875 1.183594 112.671875 0.9375 C 111.992188 0.605469 111.148438 0.363281 110.265625 0.253906 C 109.21875 0.121094 108.082031 0.0820312 104.96875 0.0585938 C 103.386719 0.0507812 102.6875 0.0507812 101.035156 0.0546875 Z M 104.863281 4.585938 C 106.300781 4.605469 107.011719 4.644531 107.648438 4.738281 C 108.855469 4.917969 109.429688 5.304688 109.699219 6.117188 C 109.820312 6.480469 109.882812 6.925781 109.921875 7.671875 C 109.941406 8.078125 109.941406 10.152344 109.921875 10.589844 C 109.875 11.597656 109.792969 12.175781 109.632812 12.648438 C 109.46875 13.125 109.128906 13.605469 108.800781 13.824219 C 108.300781 14.15625 107.503906 14.304688 105.871094 14.371094 C 104.890625 14.410156 101.695312 14.425781 100.519531 14.398438 C 98.328125 14.34375 97.601562 14.214844 96.996094 13.78125 C 96.859375 13.683594 96.621094 13.441406 96.539062 13.320312 C 96.230469 12.855469 96.078125 12.183594 96.011719 11 C 95.960938 10.125 95.96875 8.488281 96.023438 7.679688 C 96.109375 6.429688 96.320312 5.792969 96.808594 5.332031 C 96.925781 5.21875 96.996094 5.175781 97.171875 5.082031 C 97.78125 4.773438 98.75 4.644531 100.84375 4.597656 C 101.847656 4.574219 103.617188 4.570312 104.863281 4.585938 Z M 104.863281 4.585938 "/>
<path style=" stroke:none;fill-rule:nonzero;fill:rgb(0%,0%,0%);fill-opacity:1;" d="M 74.082031 0.121094 C 70.785156 0.179688 69.222656 0.421875 67.902344 1.070312 C 67.09375 1.464844 66.546875 1.890625 66.136719 2.433594 C 65.453125 3.339844 65.109375 4.660156 64.988281 6.832031 C 64.949219 7.566406 64.941406 7.914062 64.941406 9.191406 C 64.941406 10.613281 64.957031 11.214844 65.011719 12.121094 C 65.179688 14.777344 65.644531 16.238281 66.613281 17.160156 C 67.15625 17.675781 67.941406 18.113281 68.78125 18.363281 C 69.796875 18.664062 70.972656 18.792969 73.304688 18.863281 C 73.953125 18.882812 77.675781 18.890625 79.117188 18.875 C 81.398438 18.851562 82.246094 18.820312 83.386719 18.714844 C 85.105469 18.550781 86.289062 18.152344 87.082031 17.460938 C 87.589844 17.019531 87.980469 16.390625 88.183594 15.683594 C 88.320312 15.199219 88.394531 14.582031 88.433594 13.609375 C 88.449219 13.210938 88.46875 12.328125 88.46875 12.007812 L 88.46875 11.765625 L 83.019531 11.765625 L 83.011719 12.023438 C 82.988281 12.832031 82.832031 13.3125 82.480469 13.65625 C 82.257812 13.882812 81.945312 14.054688 81.550781 14.167969 C 80.890625 14.355469 80.105469 14.390625 76.617188 14.382812 C 74.695312 14.375 74.453125 14.371094 73.890625 14.335938 C 72.714844 14.261719 72.003906 14.089844 71.519531 13.757812 C 71.382812 13.664062 71.152344 13.429688 71.0625 13.292969 C 70.628906 12.636719 70.503906 11.65625 70.527344 9.183594 C 70.542969 7.382812 70.613281 6.609375 70.816406 6.027344 C 70.941406 5.667969 71.171875 5.328125 71.410156 5.160156 C 72.023438 4.726562 72.878906 4.601562 75.628906 4.5625 C 77.128906 4.542969 79.054688 4.550781 79.847656 4.585938 C 81.707031 4.667969 82.378906 4.90625 82.652344 5.578125 C 82.734375 5.78125 82.796875 6.125 82.816406 6.472656 C 82.820312 6.542969 82.828125 6.632812 82.828125 6.671875 L 82.835938 6.746094 L 88.230469 6.746094 L 88.226562 6.066406 C 88.21875 5.390625 88.210938 5.15625 88.164062 4.75 C 88.023438 3.507812 87.699219 2.585938 87.160156 1.90625 C 87.039062 1.753906 86.796875 1.511719 86.648438 1.390625 C 86.285156 1.101562 85.855469 0.890625 85.214844 0.679688 C 83.828125 0.230469 81.851562 0.105469 76.3125 0.109375 C 75.359375 0.113281 74.355469 0.117188 74.082031 0.121094 Z M 74.082031 0.121094 "/>
<path style=" stroke:none;fill-rule:nonzero;fill:rgb(0%,0%,0%);fill-opacity:1;" d="M 17.214844 0.261719 C 15.753906 0.339844 14.21875 0.898438 12.738281 1.878906 C 12.039062 2.34375 11.457031 2.828125 10.867188 3.421875 C 10.496094 3.804688 10.289062 4.039062 10.011719 4.414062 C 9.859375 4.613281 0.347656 18.519531 0.308594 18.59375 C 0.273438 18.664062 0.28125 18.707031 0.339844 18.730469 C 0.363281 18.738281 1.339844 18.742188 3.570312 18.742188 C 6.667969 18.742188 6.769531 18.742188 6.816406 18.71875 C 6.84375 18.707031 6.878906 18.679688 6.894531 18.65625 C 6.914062 18.636719 7.320312 17.984375 7.800781 17.210938 C 8.28125 16.4375 8.6875 15.792969 8.703125 15.773438 C 8.71875 15.753906 8.753906 15.726562 8.78125 15.714844 C 8.828125 15.695312 9.03125 15.691406 15.421875 15.691406 L 22.011719 15.691406 L 22.089844 15.761719 L 22.097656 17.21875 L 22.101562 18.671875 L 22.136719 18.703125 L 22.167969 18.738281 L 27.660156 18.738281 L 27.730469 18.660156 L 27.730469 0.335938 L 27.660156 0.257812 L 22.472656 0.257812 C 19.617188 0.257812 17.253906 0.257812 17.214844 0.261719 Z M 22.050781 4.8125 L 22.085938 4.847656 L 22.085938 7.964844 C 22.085938 10.066406 22.082031 11.09375 22.074219 11.105469 C 22.066406 11.121094 22.046875 11.136719 22.03125 11.144531 C 22.011719 11.15625 21.046875 11.160156 17.125 11.167969 C 12.5625 11.171875 12.238281 11.175781 12.109375 11.195312 C 11.929688 11.222656 11.796875 11.253906 11.636719 11.304688 C 11.566406 11.328125 11.507812 11.347656 11.503906 11.34375 C 11.492188 11.328125 11.433594 11.226562 11.4375 11.222656 C 11.441406 11.21875 11.488281 11.183594 11.539062 11.136719 C 11.925781 10.800781 12.160156 10.546875 12.386719 10.207031 C 12.742188 9.679688 14.648438 6.910156 14.730469 6.800781 C 15.359375 5.960938 16.222656 5.335938 17.191406 5.027344 C 17.566406 4.90625 18.066406 4.8125 18.488281 4.789062 C 18.523438 4.785156 19.332031 4.78125 20.285156 4.78125 L 22.015625 4.777344 Z M 22.050781 4.8125 "/>
<path style=" stroke:none;fill-rule:nonzero;fill:rgb(0%,0%,0%);fill-opacity:1;" d="M 30.902344 0.265625 C 30.886719 0.269531 30.863281 0.289062 30.851562 0.308594 L 30.824219 0.339844 L 30.824219 18.660156 L 30.894531 18.738281 L 36.414062 18.738281 L 36.484375 18.660156 L 36.484375 0.335938 L 36.414062 0.257812 L 33.667969 0.253906 C 32.160156 0.253906 30.914062 0.257812 30.902344 0.265625 Z M 30.902344 0.265625 "/>
<path style=" stroke:none;fill-rule:nonzero;fill:rgb(0%,0%,0%);fill-opacity:1;" d="M 39.652344 0.265625 C 39.640625 0.269531 39.617188 0.289062 39.601562 0.308594 L 39.578125 0.339844 L 39.578125 18.660156 L 39.648438 18.738281 L 42.359375 18.742188 C 44.925781 18.742188 45.078125 18.742188 45.117188 18.722656 C 45.140625 18.710938 45.164062 18.6875 45.171875 18.671875 C 45.183594 18.648438 45.1875 18.167969 45.1875 16.40625 L 45.1875 14.167969 L 45.257812 14.089844 L 49.59375 14.085938 L 53.933594 14.085938 L 53.984375 14.109375 C 54.011719 14.121094 54.039062 14.144531 54.046875 14.15625 C 54.0625 14.179688 57.179688 18.628906 57.21875 18.675781 C 57.273438 18.746094 57.050781 18.742188 60.585938 18.742188 C 63.46875 18.742188 63.835938 18.742188 63.867188 18.726562 C 63.914062 18.699219 63.925781 18.660156 63.894531 18.601562 C 63.867188 18.546875 59.628906 12.523438 59.597656 12.5 C 59.578125 12.480469 59.585938 12.476562 59.699219 12.453125 C 60.382812 12.300781 61.058594 11.878906 61.578125 11.289062 C 62.65625 10.0625 63.207031 8.179688 63.101562 6.074219 C 63.003906 4.164062 62.460938 2.597656 61.578125 1.6875 C 61.210938 1.308594 60.734375 0.984375 60.273438 0.792969 C 59.527344 0.488281 58.699219 0.355469 57.023438 0.273438 C 56.675781 0.257812 39.691406 0.246094 39.652344 0.265625 Z M 54.894531 4.789062 C 55.679688 4.820312 56.082031 4.882812 56.378906 5.035156 C 56.75 5.21875 57.007812 5.589844 57.109375 6.085938 C 57.171875 6.386719 57.203125 6.765625 57.203125 7.324219 C 57.203125 7.832031 57.179688 8.101562 57.113281 8.371094 C 56.949219 9.019531 56.535156 9.332031 55.667969 9.464844 C 55.476562 9.496094 55.367188 9.507812 55.039062 9.535156 C 54.875 9.550781 45.320312 9.566406 45.261719 9.550781 C 45.246094 9.546875 45.226562 9.527344 45.210938 9.507812 C 45.1875 9.46875 45.1875 9.433594 45.1875 7.164062 L 45.1875 4.859375 L 45.230469 4.820312 L 45.269531 4.777344 L 49.914062 4.777344 C 52.707031 4.777344 54.691406 4.785156 54.894531 4.789062 Z M 54.894531 4.789062 "/>
<path style=" stroke:none;fill-rule:nonzero;fill:rgb(0%,0%,0%);fill-opacity:1;" d="M 118.675781 0.265625 C 118.660156 0.269531 118.636719 0.289062 118.625 0.308594 L 118.597656 0.339844 L 118.597656 18.660156 L 118.667969 18.738281 L 121.382812 18.742188 C 123.949219 18.742188 124.097656 18.742188 124.136719 18.722656 C 124.160156 18.710938 124.1875 18.6875 124.195312 18.671875 C 124.207031 18.648438 124.210938 18.167969 124.210938 16.40625 L 124.210938 14.167969 L 124.28125 14.089844 L 128.617188 14.085938 L 132.957031 14.085938 L 133.007812 14.109375 C 133.035156 14.121094 133.0625 14.144531 133.070312 14.15625 C 133.082031 14.179688 136.203125 18.628906 136.238281 18.675781 C 136.296875 18.746094 136.070312 18.742188 139.609375 18.742188 C 142.488281 18.742188 142.859375 18.742188 142.890625 18.726562 C 142.9375 18.699219 142.945312 18.660156 142.917969 18.601562 C 142.890625 18.546875 138.652344 12.523438 138.621094 12.5 C 138.601562 12.480469 138.609375 12.476562 138.722656 12.453125 C 139.402344 12.300781 140.082031 11.878906 140.601562 11.289062 C 141.679688 10.0625 142.226562 8.179688 142.121094 6.074219 C 142.027344 4.164062 141.480469 2.597656 140.601562 1.6875 C 140.230469 1.308594 139.757812 0.984375 139.296875 0.792969 C 138.550781 0.488281 137.71875 0.355469 136.042969 0.273438 C 135.699219 0.257812 118.714844 0.246094 118.675781 0.265625 Z M 133.914062 4.789062 C 134.703125 4.820312 135.105469 4.882812 135.402344 5.035156 C 135.769531 5.21875 136.027344 5.589844 136.132812 6.085938 C 136.195312 6.386719 136.222656 6.765625 136.222656 7.324219 C 136.222656 7.832031 136.199219 8.101562 136.132812 8.371094 C 135.972656 9.019531 135.558594 9.332031 134.6875 9.464844 C 134.496094 9.496094 134.390625 9.507812 134.058594 9.535156 C 133.894531 9.550781 124.339844 9.566406 124.285156 9.550781 C 124.269531 9.546875 124.246094 9.527344 124.234375 9.507812 C 124.210938 9.46875 124.210938 9.433594 124.210938 7.164062 L 124.210938 4.859375 L 124.292969 4.777344 L 128.9375 4.777344 C 131.730469 4.777344 133.714844 4.785156 133.914062 4.789062 Z M 133.914062 4.789062 "/>
<path style=" stroke:none;fill-rule:nonzero;fill:rgb(0%,0%,0%);fill-opacity:1;" d="M 146.167969 0.265625 C 146.152344 0.269531 146.128906 0.289062 146.117188 0.308594 L 146.089844 0.339844 L 146.089844 18.660156 L 146.160156 18.738281 L 148.875 18.742188 C 151.4375 18.742188 151.589844 18.742188 151.628906 18.722656 C 151.652344 18.710938 151.679688 18.6875 151.6875 18.671875 C 151.699219 18.648438 151.703125 18.167969 151.703125 16.40625 L 151.703125 14.167969 L 151.738281 14.128906 L 151.769531 14.089844 L 157.507812 14.082031 C 163.210938 14.074219 163.355469 14.074219 164.058594 14.035156 C 165.679688 13.945312 166.679688 13.699219 167.410156 13.210938 C 167.5 13.152344 167.660156 13.035156 167.761719 12.945312 C 168.238281 12.554688 168.550781 12.148438 168.859375 11.527344 C 169.292969 10.640625 169.554688 9.507812 169.613281 8.253906 C 169.621094 8.109375 169.625 7.621094 169.625 7.167969 C 169.625 6.714844 169.621094 6.226562 169.613281 6.082031 C 169.523438 4.1875 168.976562 2.597656 168.09375 1.6875 C 167.722656 1.308594 167.25 0.984375 166.789062 0.792969 C 166.042969 0.488281 165.210938 0.355469 163.535156 0.273438 C 163.191406 0.257812 146.207031 0.246094 146.167969 0.265625 Z M 161.40625 4.789062 C 162.195312 4.820312 162.597656 4.882812 162.894531 5.035156 C 163.261719 5.21875 163.519531 5.589844 163.625 6.085938 C 163.742188 6.660156 163.742188 7.675781 163.625 8.253906 C 163.519531 8.746094 163.261719 9.117188 162.894531 9.300781 C 162.597656 9.453125 162.195312 9.519531 161.40625 9.546875 C 160.9375 9.5625 151.792969 9.5625 151.761719 9.546875 C 151.699219 9.511719 151.703125 9.644531 151.703125 7.160156 L 151.703125 4.859375 L 151.785156 4.777344 L 156.429688 4.777344 C 159.222656 4.777344 161.207031 4.785156 161.40625 4.789062 Z M 161.40625 4.789062 "/>
</g>
</svg>
